<?xml version="1.0" standalone="no"?>
<!DOCTYPE svg PUBLIC "-//W3C//DTD SVG 20010904//EN"
 "http://www.w3.org/TR/2001/REC-SVG-20010904/DTD/svg10.dtd">
<svg version="1.0" xmlns="http://www.w3.org/2000/svg"
 width="500.000000pt" height="500.000000pt" viewBox="0 0 500.000000 500.000000"
 preserveAspectRatio="xMidYMid meet">
<metadata>
Created by potrace 1.14, written by Peter Selinger 2001-2017
</metadata>
<g transform="translate(0.000000,500.000000) scale(0.100000,-0.100000)"
fill="#000000" stroke="none">
<path d="M747 4965 c-5 -32 -25 -64 -71 -117 -8 -10 -41 -25 -72 -34 -87 -25
-119 -48 -143 -103 -18 -43 -19 -56 -10 -107 6 -32 8 -71 5 -87 -3 -16 -3 -39
0 -52 5 -20 10 -22 43 -18 36 5 39 3 49 -27 10 -28 9 -31 -6 -28 -9 2 -16 11
-16 21 2 24 -17 21 -23 -3 -4 -13 -14 -20 -30 -20 -19 0 -24 4 -19 16 9 23
-45 10 -110 -27 -28 -16 -59 -29 -69 -29 -9 0 -19 -8 -22 -17 -2 -10 -20 -29
-39 -43 -19 -14 -41 -37 -50 -52 -8 -16 -18 -28 -22 -29 -29 -3 -47 -10 -59
-22 -19 -18 -30 -97 -14 -97 6 0 11 5 11 10 0 6 7 10 15 10 8 0 15 8 15 19 0
21 25 47 33 34 3 -5 2 -15 -4 -23 -15 -24 -10 -47 10 -53 14 -3 18 -1 14 9 -6
17 9 18 25 2 16 -16 28 17 13 36 -16 19 24 55 42 37 9 -9 9 -13 -1 -20 -7 -4
-14 -30 -16 -57 -4 -64 -15 -84 -66 -119 -22 -15 -43 -38 -46 -50 -3 -12 -19
-32 -35 -44 -16 -12 -29 -26 -29 -31 0 -14 43 -13 57 1 6 6 18 9 27 7 14 -2
13 -9 -9 -41 -14 -21 -31 -35 -36 -31 -6 3 -5 -3 3 -15 7 -12 16 -21 20 -21 5
0 8 -4 8 -9 0 -21 46 -81 71 -92 20 -10 25 -18 21 -36 -3 -17 -8 -21 -15 -14
-6 6 -21 11 -34 11 -12 0 -26 7 -30 15 -11 20 -35 3 -27 -19 4 -9 12 -15 20
-12 7 3 29 0 48 -5 33 -9 36 -13 36 -45 0 -24 -5 -37 -18 -41 -31 -11 -71 -44
-98 -78 -24 -32 -24 -35 -10 -68 12 -31 12 -38 0 -56 -9 -12 -11 -21 -5 -21 5
0 14 8 20 17 17 32 22 7 6 -37 -8 -23 -12 -46 -10 -51 3 -4 -3 -35 -14 -68
-16 -49 -18 -66 -9 -96 7 -19 16 -34 22 -31 6 2 25 -10 43 -27 27 -25 35 -28
48 -17 13 11 18 9 35 -10 25 -29 25 -36 -5 -85 -28 -44 -33 -85 -11 -85 8 0
19 -14 25 -31 14 -42 14 -52 -2 -46 -8 3 -32 -3 -54 -13 -54 -24 -71 -65 -52
-123 11 -37 13 -39 17 -17 4 25 29 60 42 60 4 0 5 -12 2 -28 -2 -19 4 -35 22
-55 14 -16 26 -37 26 -48 0 -19 43 -74 58 -74 13 0 82 -60 82 -71 0 -6 12 -11
26 -11 38 0 49 -17 30 -44 -22 -32 -20 -37 9 -31 14 2 25 11 25 18 0 19 15 18
31 -2 11 -14 11 -18 -2 -28 -13 -10 -13 -18 1 -69 9 -34 20 -55 25 -50 5 4 4
1 -3 -9 -18 -23 -5 -64 30 -93 32 -27 44 -31 131 -40 l59 -7 -23 -24 c-13 -14
-31 -22 -43 -20 -12 2 -15 1 -8 -1 16 -6 15 -23 -3 -37 -37 -27 26 -88 89 -85
13 1 7 6 -18 13 -35 11 -40 16 -42 47 -1 19 0 26 2 17 3 -10 10 -18 15 -18 5
0 8 -6 7 -12 -2 -7 7 -14 19 -16 16 -2 21 1 18 10 -5 13 39 68 54 68 12 0 6
-87 -7 -103 -16 -18 47 -83 76 -79 12 2 22 -1 22 -7 0 -6 7 -11 16 -11 13 0
15 -7 11 -35 -3 -19 -2 -35 4 -35 5 0 9 -6 9 -12 1 -18 31 -52 55 -63 18 -7
18 -9 3 -12 -21 -5 -24 -23 -4 -23 34 0 77 13 65 20 -6 5 -9 15 -6 24 8 21 63
21 71 1 3 -8 14 -15 25 -15 11 0 24 -7 29 -16 6 -11 25 -17 63 -18 30 -1 59
-4 64 -7 6 -4 27 -9 48 -13 20 -4 37 -11 37 -16 0 -6 10 -10 23 -10 17 0 27
-10 40 -40 9 -22 22 -40 28 -40 8 0 7 6 -2 16 -12 15 -11 16 11 9 23 -7 24 -7
10 10 -14 17 -13 18 2 12 15 -5 16 -4 6 13 -7 10 -9 23 -5 27 12 11 42 -11 45
-33 9 -58 13 -66 32 -61 11 3 24 -1 31 -9 9 -11 9 -14 -1 -14 -30 0 13 -29 53
-35 23 -4 47 -15 54 -24 8 -10 12 -12 13 -3 0 19 28 14 50 -8 11 -11 23 -20
28 -20 4 -1 7 -9 6 -20 0 -10 4 -18 9 -17 6 1 14 -9 18 -23 7 -25 7 -25 8 4 1
23 4 27 19 21 9 -4 27 -10 39 -12 12 -3 28 -11 34 -19 15 -19 33 -18 25 1 -3
8 -1 15 4 15 6 0 10 -5 10 -11 0 -6 7 -9 15 -6 8 4 17 2 20 -3 9 -15 86 -12
84 3 -1 6 -1 38 0 70 l1 57 28 -17 c52 -34 94 -88 133 -173 54 -113 89 -150
143 -148 70 2 296 123 329 176 5 7 27 26 49 42 23 17 35 30 28 30 -7 0 12 18
43 40 30 22 58 40 61 40 3 0 6 -22 6 -50 0 -43 3 -50 20 -50 11 0 20 -4 20
-10 0 -5 7 -10 16 -10 14 0 14 -3 4 -15 -19 -23 6 -18 28 6 l19 20 5 -26 c4
-20 1 -29 -16 -35 -21 -9 -21 -9 2 -9 17 -1 27 7 35 29 6 17 15 30 20 30 4 0
5 5 1 11 -4 8 8 10 40 8 33 -3 46 0 46 9 0 7 4 11 9 7 5 -3 14 10 21 29 10 33
27 47 53 45 7 0 3 -4 -7 -8 -19 -7 -19 -8 2 -13 15 -4 22 -2 22 8 0 8 9 14 21
14 15 0 19 4 15 16 -5 13 3 15 48 13 36 -2 61 2 72 12 16 14 77 33 142 45 27
6 31 10 26 27 -5 16 -3 19 10 14 14 -6 16 -3 11 13 -9 27 43 50 60 26 7 -9 20
-13 33 -9 15 3 24 0 28 -11 3 -9 12 -16 20 -16 8 0 14 -4 14 -9 0 -17 53 7 88
40 18 17 38 43 43 56 9 26 26 27 72 8 11 -5 17 -3 17 7 0 11 14 15 58 14 49 0
61 4 85 26 l29 27 -39 -6 c-37 -6 -38 -6 -20 14 9 11 17 25 17 31 0 6 7 15 15
20 13 7 14 14 6 35 -9 23 -8 27 7 27 9 0 28 -15 41 -33 13 -17 21 -24 17 -14
-3 10 -6 25 -6 32 0 8 -9 17 -20 20 -11 4 -18 11 -14 16 3 5 14 7 24 4 22 -7
37 24 18 38 -10 6 -8 7 4 4 9 -3 18 -3 20 1 7 16 88 72 104 72 13 0 14 3 5 14
-8 10 -9 16 -2 21 6 3 9 26 6 50 -2 32 0 45 9 45 7 0 12 10 12 21 -1 16 11 29
44 46 25 13 53 22 63 19 9 -2 15 0 12 4 -3 5 2 15 10 23 8 9 15 19 15 22 0 4
11 16 25 27 14 11 25 26 25 35 0 13 12 46 63 163 6 14 10 27 10 30 -1 3 10 13
23 23 13 10 24 14 24 8 0 -26 119 55 120 82 0 4 11 20 25 35 14 15 25 38 25
52 0 14 3 35 6 48 5 19 9 20 22 10 13 -11 14 -8 7 22 -7 38 -28 60 -56 60 -22
0 -36 20 -20 29 19 12 -5 120 -34 151 -32 33 -32 54 1 69 22 9 25 16 20 38 -6
21 -4 24 10 19 13 -5 15 -2 11 15 -3 12 0 30 6 41 10 16 9 21 -5 29 -25 14
-22 38 6 48 13 5 26 17 30 26 8 22 7 32 -2 20 -7 -10 -48 -35 -57 -35 -14 0
-3 31 15 40 11 6 23 22 26 36 5 18 9 22 19 14 10 -8 15 -3 23 20 6 17 18 30
27 30 9 0 14 -4 10 -9 -3 -5 -1 -12 4 -15 39 -25 -5 125 -53 178 -45 49 -50
65 -28 90 47 52 35 95 -55 190 -87 92 -85 127 6 139 30 4 50 13 62 28 10 14
21 19 29 14 10 -6 12 0 7 28 -5 31 -3 35 11 30 15 -6 16 -5 2 13 -66 88 -103
124 -134 130 -22 4 -37 14 -44 29 -6 12 -34 34 -63 48 -28 13 -47 27 -42 30 5
3 31 -5 56 -19 54 -28 63 -17 15 17 -18 12 -35 24 -37 26 -3 2 6 14 19 28 15
16 30 23 42 19 15 -4 18 0 18 24 0 17 6 33 13 35 7 3 4 6 -7 6 -12 1 -16 6
-12 17 3 9 6 20 6 26 0 6 6 6 15 -2 13 -11 14 -8 8 21 -6 31 -5 33 10 20 15
-11 17 -11 17 2 0 9 -12 25 -26 36 -14 11 -23 25 -20 30 16 25 -93 69 -184 74
-42 2 -54 6 -52 17 1 10 -3 8 -13 -4 -15 -20 -15 -20 -15 1 0 11 9 28 19 37
17 15 18 21 8 38 -9 16 -9 22 1 25 6 3 12 13 12 24 0 24 27 25 33 2 3 -10 5 3
6 29 1 44 -2 49 -31 65 -52 27 -97 41 -117 36 -26 -7 -69 18 -114 66 -39 42
-89 56 -100 29 -4 -10 -6 -10 -6 0 -1 9 -349 12 -1705 12 l-1703 0 -6 -35z
m3563 -65 c0 -5 -4 -10 -10 -10 -5 0 -10 5 -10 10 0 6 5 10 10 10 6 0 10 -4
10 -10z m-3520 -10 c0 -5 -5 -10 -11 -10 -5 0 -7 5 -4 10 3 6 8 10 11 10 2 0
4 -4 4 -10z m-95 -80 c9 -14 -48 -40 -65 -30 -17 11 -14 14 25 28 17 6 31 11
32 11 1 1 4 -3 8 -9z m3909 -386 c17 -17 21 -34 8 -34 -5 0 -14 11 -20 25 -13
29 -10 31 12 9z m-4167 -40 c-3 -3 -12 -4 -19 -1 -8 3 -5 6 6 6 11 1 17 -2 13
-5z m4311 -283 c11 -7 11 -9 -1 -14 -16 -6 -27 0 -27 15 0 10 11 10 28 -1z
m54 -86 c0 -5 -5 -11 -11 -13 -6 -2 -11 4 -11 13 0 9 5 15 11 13 6 -2 11 -8
11 -13z m-4566 -44 c-21 -23 -85 -55 -93 -47 -8 8 28 47 37 41 4 -2 16 2 26
10 30 23 51 19 30 -4z m79 -17 c0 -9 -93 -63 -109 -64 -5 0 -3 7 4 15 7 8 19
15 28 15 8 0 12 3 9 7 -12 12 25 43 47 39 11 -2 21 -7 21 -12z m2640 -178
c141 -32 246 -106 284 -198 12 -29 26 -61 31 -70 24 -43 2 -124 -47 -169 -29
-28 -44 -32 -178 -50 -104 -14 -242 -49 -255 -64 -5 -7 -13 -26 -16 -43 -6
-27 -2 -33 27 -51 19 -12 44 -21 56 -21 29 0 38 -17 15 -29 -29 -16 -108 -163
-123 -231 -7 -33 -16 -60 -20 -60 -17 0 -18 -331 -1 -380 7 -19 23 -48 37 -64
14 -16 25 -32 25 -35 0 -9 69 -39 119 -51 55 -14 273 -10 363 7 37 7 114 28
170 46 125 42 179 52 172 32 -3 -7 4 -23 16 -35 11 -11 18 -25 15 -30 -4 -6
-2 -10 3 -10 12 0 25 -31 17 -39 -3 -3 -10 1 -15 9 -7 11 -10 12 -10 2 0 -7
-7 -20 -15 -29 -9 -8 -14 -20 -12 -26 1 -5 -6 -20 -17 -33 -38 -40 -46 -52
-62 -93 -9 -23 -22 -41 -30 -41 -8 0 -14 -6 -14 -13 0 -15 -78 -77 -97 -77 -7
0 -13 -5 -13 -11 0 -6 -7 -9 -15 -5 -11 4 -15 -2 -15 -20 0 -14 -4 -23 -9 -20
-11 7 -21 -28 -21 -78 0 -22 -3 -37 -6 -34 -3 4 -5 31 -5 62 0 31 -5 58 -10
61 -5 3 -6 0 -4 -8 3 -7 1 -24 -4 -38 l-10 -24 0 23 c-1 31 -21 18 -21 -14 0
-13 -5 -24 -11 -24 -7 0 -9 10 -5 24 3 14 2 28 -4 31 -5 3 -10 -3 -10 -14 0
-12 -4 -21 -10 -21 -5 0 -21 -22 -35 -50 -14 -27 -23 -50 -20 -50 15 0 45 43
45 65 0 22 3 24 19 15 17 -8 19 -18 15 -67 -3 -44 -2 -53 5 -35 6 12 14 22 18
23 15 1 38 7 56 14 10 4 17 3 17 -5 0 -6 -4 -9 -9 -6 -5 3 -13 -7 -19 -22 -6
-18 -17 -28 -32 -29 -13 -1 -26 -7 -30 -14 -4 -6 -13 -8 -19 -5 -6 4 -11 3
-11 -1 0 -13 -78 -46 -89 -38 -5 3 -14 -1 -18 -10 -5 -8 -23 -17 -41 -19 -17
-2 -38 -8 -45 -15 -8 -6 -17 -8 -20 -4 -4 3 -12 2 -19 -3 -7 -6 -35 -9 -63 -8
-27 0 -62 -5 -77 -12 -16 -9 -29 -10 -33 -4 -3 5 -12 7 -20 3 -9 -3 -22 0 -30
7 -11 9 -19 9 -28 2 -14 -12 -35 -11 -54 1 -8 5 -13 3 -13 -3 0 -6 -10 -2 -22
10 -12 11 -26 20 -30 20 -5 0 -8 6 -7 13 4 22 -20 67 -36 67 -8 0 -15 -4 -15
-8 0 -5 -17 -6 -37 -4 -21 3 -50 5 -65 5 -16 0 -28 4 -28 10 0 6 -4 6 -12 0
-7 -6 -21 -13 -32 -17 -14 -5 -17 -2 -12 9 3 9 2 13 -4 10 -13 -8 -13 -55 1
-55 6 0 9 -10 7 -22 -2 -15 -9 -22 -20 -22 -10 1 -15 -2 -13 -7 3 -4 -25 -6
-62 -3 -37 3 -78 6 -90 6 -13 0 -23 4 -23 9 0 5 -15 9 -34 9 -19 0 -41 7 -50
15 -8 8 -18 15 -22 15 -11 0 -64 62 -64 76 0 19 -27 37 -33 22 -4 -8 -8 -5
-12 10 -6 19 -22 27 -47 23 -12 -2 -29 39 -22 51 4 7 3 8 -4 4 -7 -4 -12 -2
-12 5 0 15 -30 49 -43 49 -5 0 -7 -7 -4 -15 4 -8 2 -17 -3 -20 -5 -3 -10 5
-12 17 -2 13 -9 22 -15 21 -6 -1 -22 19 -34 44 -13 26 -24 42 -27 35 -2 -7 -8
-12 -13 -12 -5 0 -4 10 2 23 11 20 11 21 -4 8 -15 -12 -17 -11 -17 3 0 9 -3
16 -8 16 -4 0 -15 19 -25 43 -10 23 -29 58 -42 77 -32 48 -39 85 -20 104 9 8
17 19 18 23 1 4 49 8 107 9 58 1 159 5 225 9 66 5 138 9 160 9 45 1 80 -22 89
-59 6 -25 113 -128 125 -120 5 2 49 -1 99 -7 84 -10 96 -9 157 10 36 12 72 22
80 22 22 0 39 49 26 75 -10 20 -10 20 -10 -1 -2 -43 -168 -68 -264 -40 -73 21
-80 35 -55 111 23 68 28 251 10 320 -6 22 -13 81 -17 130 -12 199 -27 300 -44
315 -3 3 -17 25 -30 50 -13 25 -30 52 -37 61 -11 12 -11 22 -2 45 10 27 8 33
-18 61 -29 31 -155 83 -203 83 -12 0 -19 4 -16 10 3 6 1 10 -6 10 -17 0 -97
39 -105 51 -3 5 -16 9 -29 9 -13 0 -36 10 -52 23 -15 13 -36 27 -46 30 -11 4
-21 16 -24 27 -3 11 -11 20 -17 20 -26 0 -7 71 31 122 62 80 179 124 398 149
44 5 91 11 105 13 23 3 165 21 250 30 84 9 378 -3 445 -18z m1814 -72 c12 -15
21 -31 21 -35 0 -19 -16 -7 -38 26 -26 41 -13 47 17 9z m-2 -166 c-3 -8 -6 -5
-6 6 -1 11 2 17 5 13 3 -3 4 -12 1 -19z m-4587 -134 c0 -17 -24 -29 -40 -19
-8 5 -6 13 6 26 18 20 34 17 34 -7z m-64 -61 c-11 -11 -19 6 -11 24 8 17 8 17
12 0 3 -10 2 -21 -1 -24z m1 -125 c-3 -7 -5 -2 -5 12 0 14 2 19 5 13 2 -7 2
-19 0 -25z m23 -103 c0 -3 -6 -5 -14 -5 -8 0 -17 -7 -20 -16 -11 -28 -18 -8
-11 29 7 35 7 35 26 16 10 -10 19 -21 19 -24z m10 -40 c-7 -8 -17 -15 -22 -15
-6 0 -5 7 2 15 7 8 17 15 22 15 6 0 5 -7 -2 -15z m88 -76 c-7 -4 -16 -3 -20 4
-11 18 2 29 18 16 12 -10 12 -14 2 -20z m1692 1 c29 -11 62 -28 74 -37 20 -14
20 -15 1 -8 -65 25 -158 45 -210 46 -33 1 -52 3 -42 6 9 2 14 9 11 15 -11 17
106 2 166 -22z m1255 21 c-3 -5 5 -12 17 -14 13 -2 2 -5 -23 -6 -53 -1 -171
-35 -209 -59 -23 -14 -24 -14 -11 1 27 34 126 72 224 86 5 0 6 -3 2 -8z
m-1175 -92 c71 -33 119 -75 148 -130 12 -24 17 -35 10 -25 -36 54 -96 108
-146 133 -148 72 -335 2 -404 -151 -32 -71 -32 -182 0 -248 52 -106 150 -170
269 -176 60 -4 80 0 125 20 74 34 119 77 153 145 25 50 29 70 30 142 l0 84 11
-50 c19 -84 26 -227 14 -271 -13 -48 -53 -100 -89 -113 -13 -6 -58 -14 -99
-19 -215 -28 -509 66 -569 180 -51 97 -13 317 70 409 67 73 159 102 312 98 94
-2 118 -6 165 -28z m1355 2 c119 -53 183 -164 191 -331 4 -104 -7 -149 -48
-190 -97 -97 -357 -164 -547 -140 -85 11 -126 32 -158 80 -20 29 -23 46 -23
134 0 105 14 218 30 245 6 11 7 4 2 -19 -40 -194 87 -367 280 -378 88 -5 153
17 216 73 69 62 96 127 97 230 0 67 -5 88 -27 130 -25 49 -76 108 -63 73 13
-33 -59 -42 -79 -10 -14 23 6 44 37 39 28 -4 29 -3 11 11 -48 36 -110 56 -179
56 -85 0 -143 -24 -211 -86 -35 -32 -43 -36 -30 -16 18 27 63 65 103 87 89 47
305 54 398 12z m-1284 -71 c28 -16 25 -50 -5 -50 -37 0 -56 10 -56 29 0 32 24
40 61 21z m757 -85 c-6 -14 -13 -23 -15 -21 -5 5 15 46 22 46 3 0 -1 -11 -7
-25z m-2641 -197 c-3 -8 -6 -5 -6 6 -1 11 2 17 5 13 3 -3 4 -12 1 -19z m4616
7 c-3 -9 -8 -14 -10 -11 -3 3 -2 9 2 15 9 16 15 13 8 -4z m-1117 -272 c-10
-54 -11 -56 -14 -21 -3 31 11 78 22 78 1 0 -2 -26 -8 -57z m864 -8 c0 -8 -4
-15 -10 -15 -5 0 -10 7 -10 15 0 8 5 15 10 15 6 0 10 -7 10 -15z m-3715 -525
c3 -5 1 -10 -4 -10 -6 0 -11 5 -11 10 0 6 2 10 4 10 3 0 8 -4 11 -10z m3230
-109 c8 -13 -23 -41 -46 -41 -25 0 -25 20 1 27 11 3 20 9 20 14 0 12 17 12 25
0z m-3070 -43 c24 -11 36 -48 14 -48 -29 0 -73 36 -63 52 7 11 19 10 49 -4z
m2895 -28 c0 -5 -4 -10 -10 -10 -5 0 -10 5 -10 10 0 6 5 10 10 10 6 0 10 -4
10 -10z m167 4 c-3 -3 -12 -4 -19 -1 -8 3 -5 6 6 6 11 1 17 -2 13 -5z m-237
-84 c0 -5 -7 -10 -15 -10 -8 0 -15 5 -15 10 0 6 7 10 15 10 8 0 15 -4 15 -10z
m-560 -161 c0 -5 -4 -9 -10 -9 -5 0 -10 7 -10 16 0 8 5 12 10 9 6 -3 10 -10
10 -16z m-1364 -87 c-10 -10 -29 15 -21 28 6 9 10 8 17 -4 6 -10 7 -20 4 -24z"/>
<path d="M2325 1973 c-19 -6 -47 -14 -62 -16 -16 -2 -35 -6 -43 -10 -8 -3 -37
-10 -65 -17 -107 -24 -122 -30 -132 -53 -9 -19 -7 -26 11 -40 11 -10 29 -16
39 -13 9 2 17 0 17 -5 0 -5 13 0 29 12 38 28 77 21 148 -28 52 -36 80 -41 47
-9 -15 16 -8 17 112 15 163 -3 317 6 345 22 27 14 67 17 130 9 27 -4 49 -3 49
1 0 4 9 5 20 2 11 -3 20 0 20 6 0 6 7 11 17 11 14 0 14 2 -3 21 -25 28 -53 42
-89 46 -49 4 -95 15 -95 22 0 3 -24 6 -53 6 -28 0 -82 7 -119 17 -52 13 -75
14 -104 6 -20 -5 -53 -7 -73 -4 -67 12 -110 12 -146 -1z m210 -73 c12 5 25 7
28 4 2 -3 35 -7 73 -10 38 -3 79 -11 93 -19 24 -12 22 -13 -35 -19 -112 -13
-427 -6 -443 9 -2 3 7 5 20 5 14 0 29 4 35 9 5 6 38 13 74 17 36 3 66 8 68 9
2 2 17 -1 33 -5 17 -5 40 -5 54 0z"/>
<path d="M2520 1730 c36 -12 70 -12 70 0 0 6 -21 10 -47 9 -39 -1 -43 -2 -23
-9z"/>
<path d="M3206 1705 c-9 -26 -7 -32 5 -12 6 10 9 21 6 23 -2 3 -7 -2 -11 -11z"/>
<path d="M3060 1695 c-9 -10 -16 -12 -20 -5 -3 5 -16 -9 -28 -31 -13 -23 -21
-44 -18 -46 2 -3 18 10 35 28 26 27 31 29 32 13 1 -10 5 -3 9 16 10 41 8 46
-10 25z"/>
<path d="M2337 1673 c-4 -3 -7 -13 -7 -22 1 -13 3 -13 11 2 11 19 8 33 -4 20z"/>
<path d="M2616 1642 c8 -34 10 -36 23 -27 18 11 12 42 -9 48 -17 4 -19 2 -14
-21z"/>
<path d="M2685 1610 c3 -5 8 -10 11 -10 2 0 4 5 4 10 0 6 -5 10 -11 10 -5 0
-7 -4 -4 -10z"/>
<path d="M409 4747 c-8 -6 -23 -23 -34 -36 -20 -24 -20 -24 0 -13 25 13 60 50
53 57 -2 3 -11 -1 -19 -8z"/>
<path d="M4830 3260 c0 -5 5 -10 10 -10 6 0 10 5 10 10 0 6 -4 10 -10 10 -5 0
-10 -4 -10 -10z"/>
<path d="M850 1700 c0 -5 5 -10 10 -10 6 0 10 5 10 10 0 6 -4 10 -10 10 -5 0
-10 -4 -10 -10z"/>
<path d="M832 1660 c-7 -11 -9 -20 -4 -20 10 0 32 22 32 32 0 15 -15 8 -28
-12z"/>
<path d="M930 1570 c0 -5 5 -10 10 -10 6 0 10 5 10 10 0 6 -4 10 -10 10 -5 0
-10 -4 -10 -10z"/>
<path d="M1083 1553 c-7 -2 -13 -11 -13 -19 0 -11 5 -11 25 -2 34 15 22 35
-12 21z"/>
<path d="M1262 1508 c5 -15 28 -18 29 -3 0 6 -7 12 -17 13 -10 3 -15 -1 -12
-10z"/>
<path d="M3302 1300 c-8 -13 -8 -20 -2 -20 6 0 13 7 17 15 9 24 -1 27 -15 5z"/>
<path d="M3196 1287 c3 -10 9 -15 12 -12 3 3 0 11 -7 18 -10 9 -11 8 -5 -6z"/>
<path d="M3196 1251 c-17 -6 -17 -8 -4 -14 9 -3 24 1 35 8 14 11 15 14 3 14
-8 0 -24 -4 -34 -8z"/>
<path d="M2104 1130 c-12 -5 -24 -15 -27 -24 -4 -9 -15 -16 -24 -16 -12 0 -36
-26 -66 -70 l-47 -69 31 -35 c19 -22 37 -33 49 -31 12 2 28 -9 47 -33 71 -94
156 -162 275 -220 104 -50 117 -60 118 -83 0 -14 -5 -30 -12 -37 -9 -9 -8 -12
5 -12 10 0 20 -7 23 -15 7 -17 59 -20 70 -4 3 6 7 33 7 60 0 27 5 49 11 49 5
0 57 26 115 58 186 101 287 225 298 366 3 35 2 66 -3 69 -5 3 -9 -16 -10 -43
-1 -67 -44 -149 -123 -232 -59 -63 -80 -77 -204 -137 -76 -36 -140 -64 -143
-60 -2 3 -50 26 -106 50 -96 41 -110 51 -201 141 -90 89 -97 99 -85 117 7 12
18 21 25 21 7 0 13 7 13 15 0 8 5 15 11 15 14 0 5 130 -9 139 -5 3 -11 11 -13
17 -3 7 -12 9 -25 4z"/>
<path d="M2425 479 c-4 -6 -5 -12 -2 -15 2 -3 7 2 10 11 7 17 1 20 -8 4z"/>
<path d="M2420 408 c0 -23 35 -58 58 -58 12 0 10 4 -8 13 -13 7 -30 24 -37 37
-9 18 -13 20 -13 8z"/>
</g>
</svg>
